<?xml version="1.0" encoding="UTF-8"?>
<svg width="24px" height="24px" viewBox="0 0 24 24" version="1.1" xmlns="http://www.w3.org/2000/svg" xmlns:xlink="http://www.w3.org/1999/xlink">
    <!-- Generator: Sketch 59 (86127) - https://sketch.com -->
    <title>Fill 273</title>
    <desc>Created with Sketch.</desc>
    <g id="Desktop-Designs" stroke="none" stroke-width="1" fill="none" fill-rule="evenodd" opacity="0.476678757">
        <g id="Search-as-a-dropdown" transform="translate(-1062.000000, -80.000000)" fill="#000000">
            <g id="Fill-273" transform="translate(1062.000000, 80.000000)">
                <path d="M13.4155,12.001 L23.7085,1.708 C24.0995,1.318 24.0995,0.686 23.7085,0.294 C23.3175,-0.097 22.6845,-0.097 22.2945,0.294 L12.0015,10.587 L1.7085,0.294 C1.3175,-0.097 0.6845,-0.097 0.2945,0.294 C-0.0965,0.686 -0.0965,1.318 0.2945,1.708 L10.5865,12.001 L0.2945,22.294 C-0.0965,22.686 -0.0965,23.318 0.2945,23.708 C0.4895,23.903 0.7455,24.001 1.0015,24.001 C1.2575,24.001 1.5135,23.903 1.7085,23.708 L12.0015,13.415 L22.2945,23.708 C22.4895,23.903 22.7455,24.001 23.0015,24.001 C23.2575,24.001 23.5135,23.903 23.7085,23.708 C24.0995,23.318 24.0995,22.686 23.7085,22.294 L13.4155,12.001 Z"></path>
            </g>
        </g>
    </g>
</svg>