<?xml version="1.0" encoding="UTF-8"?>
<svg width="28px" height="26px" viewBox="0 0 28 26" version="1.1" xmlns="http://www.w3.org/2000/svg" xmlns:xlink="http://www.w3.org/1999/xlink">
    <!-- Generator: Sketch 59.1 (86144) - https://sketch.com -->
    <title>Group</title>
    <desc>Created with Sketch.</desc>
    <g id="Mobile-Designs" stroke="none" stroke-width="1" fill="none" fill-rule="evenodd">
        <g id="Homepage-mobile" transform="translate(-262.000000, -54.000000)" fill="#000000">
            <g id="Header-images" transform="translate(-314.000000, -58.000000)">
                <g id="Graphic">
                    <g id="Group-3" transform="translate(0.401894, 0.337340)">
                        <g id="Group-4" transform="translate(0.256915, 0.321335)">
                            <g id="Nav-clear" transform="translate(575.341191, 111.341325)">
                                <g id="Group">
                                    <path d="M1.65123548,2.48181818 L26.3487645,2.48181818 C27.2618977,2.48181818 28,1.92589091 28,1.24090909 C28,0.555927273 27.2618977,0 26.3487645,0 L1.65123548,0 C0.738102259,0 0,0.555927273 0,1.24090909 C0,1.92589091 0.738102259,2.48181818 1.65123548,2.48181818" id="Fill-725"></path>
                                    <path d="M26.3487645,11.05 L1.65123548,11.05 C0.738102259,11.05 0,11.6059273 0,12.2909091 C0,12.9758909 0.738102259,13.5318182 1.65123548,13.5318182 L26.3487645,13.5318182 C27.2618977,13.5318182 28,12.9758909 28,12.2909091 C28,11.6059273 27.2618977,11.05 26.3487645,11.05" id="Fill-726"></path>
                                    <path d="M26.3487645,23.2818182 L1.65123548,23.2818182 C0.738102259,23.2818182 0,23.8377455 0,24.5227273 C0,25.2077091 0.738102259,25.7636364 1.65123548,25.7636364 L26.3487645,25.7636364 C27.2618977,25.7636364 28,25.2077091 28,24.5227273 C28,23.8377455 27.2618977,23.2818182 26.3487645,23.2818182" id="Fill-727"></path>
                                </g>
                            </g>
                        </g>
                    </g>
                </g>
            </g>
        </g>
    </g>
</svg>