<?xml version="1.0" encoding="UTF-8"?>
<svg width="100%" height="100%" viewBox="0 0 20 18" version="1.1" xmlns="http://www.w3.org/2000/svg" xmlns:xlink="http://www.w3.org/1999/xlink">
    <!-- Generator: Sketch 58 (84663) - https://sketch.com -->
    <title>Home</title>
    <desc>Created with Sketch.</desc>
    <g id="Page-1" stroke="none" stroke-width="1" fill="none" fill-rule="evenodd">
        <g id="Mobile-menu" transform="translate(-64.000000, -58.000000)" fill="#334342" fill-rule="nonzero">
            <g id="Home" transform="translate(64.000000, 58.000000)">
                <path d="M19.6137898,8.91051522 L17.0801105,6.43748117 L16.4800285,5.85176258 L15.4576667,4.85387165 L10.8570383,0.341669177 C10.3903079,-0.113889726 9.61242392,-0.113889726 9.14569351,0.341669177 L4.50061467,4.85387165 L3.41157704,5.91684242 L2.87817086,6.43748117 L0.366716751,8.91051522 C-0.122238917,9.3877674 -0.122238917,10.1904188 0.366716751,10.667671 L0.388942008,10.6893643 C0.877897676,11.1666165 1.70023221,11.1666165 2.18918787,10.6893643 L2.90039612,9.99517927 L2.90039612,16.6984031 C2.90039612,17.4142814 3.50047807,18 4.23391158,18 L6.92316775,18 C7.43434867,18 7.85662857,17.6529075 7.9455296,17.1756553 C7.96775485,17.1105755 7.96775485,17.0454956 7.96775485,17.0021091 L7.96775485,12.1211208 L12.0794275,12.1211208 L12.0794275,16.9804158 C12.0794275,17.0454956 12.0794275,17.1105755 12.1016528,17.153962 C12.1905538,17.6312142 12.6128337,17.9783067 13.1240146,17.9783067 L15.7688203,17.9783067 C16.5022538,17.9783067 17.1023357,17.3925881 17.1023357,16.6767099 L17.1023357,9.99517927 L17.813544,10.6893643 C18.3024996,11.1666165 19.1248342,11.1666165 19.6137898,10.6893643 L19.6360151,10.667671 C20.1249708,10.1904188 20.1249708,9.3877674 19.6137898,8.91051522 Z" id="Path"></path>
            </g>
        </g>
    </g>
</svg>