<?xml version="1.0" encoding="UTF-8"?>
<svg width="14px" height="16px" viewBox="0 0 14 16" version="1.1" xmlns="http://www.w3.org/2000/svg" xmlns:xlink="http://www.w3.org/1999/xlink">
    <!-- Generator: Sketch 57.1 (83088) - https://sketch.com -->
    <title>lock</title>
    <desc>Created with Sketch.</desc>
    <g id="Designs" stroke="none" stroke-width="1" fill="none" fill-rule="evenodd">
        <g id="Purpose-video-version" transform="translate(-1029.000000, -66.000000)" fill="#FFFFFF">
            <g id="Nav-bar" transform="translate(120.500000, 48.000000)">
                <g id="Group-4" transform="translate(892.000000, 10.000000)">
                    <g id="Group-3" transform="translate(17.250000, 6.000000)">
                        <path d="M12.35,7.486 L11.3854,7.486 L11.3854,6.8867 C11.3854,4.4206 8.9661,2 6.5,2 C4.0339,2 1.6133,4.4206 1.6133,6.8867 L1.6133,7.486 L0.65,7.486 C0.2912,7.486 0,7.7772 0,8.136 L0,17.236 C0,17.5948 0.2912,17.886 0.65,17.886 L12.35,17.886 C12.7088,17.886 13,17.5948 13,17.236 L13,8.136 C13,7.7772 12.7088,7.486 12.35,7.486 L12.35,7.486 Z M7.2644,12.374 C7.2306,12.4104 7.1903,12.4416 7.15,12.4715 L7.15,14.7842 C7.15,15.143 6.8588,15.4342 6.5,15.4342 C6.1412,15.4342 5.85,15.143 5.85,14.7842 L5.85,12.4689 C5.6069,12.2778 5.4444,11.9879 5.4379,11.6577 C5.4262,11.0727 5.8942,10.5865 6.4792,10.5748 L6.4805,10.5748 C7.0746,10.5748 7.5517,11.0428 7.5621,11.6174 C7.5673,11.9008 7.462,12.1699 7.2644,12.374 L7.2644,12.374 Z M2.9133,7.6433 L2.9133,6.8867 C2.9133,5.1434 4.758,3.3 6.5,3.3 C8.2433,3.3 10.0854,5.1434 10.0854,6.8867 L10.0867,7.6433 L2.9133,7.6433 L2.9133,7.6433 Z" id="lock"></path>
                    </g>
                </g>
            </g>
        </g>
    </g>
</svg>
