<?xml version="1.0" encoding="UTF-8"?>
<svg width="100%" height="100%" viewBox="0 0 17 17" version="1.1" xmlns="http://www.w3.org/2000/svg" xmlns:xlink="http://www.w3.org/1999/xlink">
    <!-- Generator: Sketch 58 (84663) - https://sketch.com -->
    <title>search</title>
    <desc>Created with Sketch.</desc>
    <defs>
        <polygon id="path-1" points="0 0.110143548 14.9166637 0.110143548 14.9166637 15.026821 0 15.026821"></polygon>
    </defs>
    <g id="Page-1" stroke="none" stroke-width="1" fill="none" fill-rule="evenodd">
        <g id="search">
            <g id="Group-3" transform="translate(0.000000, 0.027008)">
                <g id="Fill-1-Clipped">
                    <mask id="mask-2" fill="white">
                        <use xlink:href="#path-1"></use>
                    </mask>
                    <g id="path-1"></g>
                    <path d="M7.458325,15.026821 C3.34583306,15.026821 -1.37096774e-05,11.6809742 -1.37096774e-05,7.56848226 C-1.37096774e-05,3.45599032 3.34583306,0.110143548 7.458325,0.110143548 C11.5708169,0.110143548 14.9166637,3.45599032 14.9166637,7.56848226 C14.9166637,8.03049839 14.8740266,8.49347419 14.7898492,8.94465968 C14.7204782,9.31687742 14.361696,9.56269194 13.9903008,9.49277258 C13.6180831,9.42326452 13.3726798,9.06530484 13.4420508,8.6930871 C13.5108734,8.32470806 13.545696,7.94632097 13.545696,7.56848226 C13.545696,4.21180484 10.8148653,1.48111129 7.458325,1.48111129 C4.10178468,1.48111129 1.37095403,4.21180484 1.37095403,7.56848226 C1.37095403,10.9250226 4.10178468,13.6558532 7.458325,13.6558532 C9.00601048,13.6558532 10.4810347,13.0745629 11.6118089,12.0189177 C11.8883331,11.7603532 12.3222444,11.7752968 12.5805347,12.0520952 C12.8389621,12.3287565 12.8241556,12.7625306 12.5473573,13.020821 C11.1618573,14.3144661 9.35451048,15.026821 7.458325,15.026821" id="Fill-1" fill="#9BA2A2" fill-rule="nonzero" mask="url(#mask-2)"></path>
                </g>
            </g>
            <path d="M15.7012685,16.8899113 C15.5246879,16.8899113 15.3482444,16.8221855 15.2141637,16.6867339 L11.5916556,13.0283065 C11.3252766,12.7593226 11.3274702,12.3252742 11.596454,12.0590323 C11.865575,11.792379 12.2996234,11.7947097 12.5658653,12.0636935 L16.1883734,15.7219839 C16.4547524,15.9911048 16.4525589,16.4251532 16.183575,16.6915323 C16.0499056,16.8239677 15.8755185,16.8899113 15.7012685,16.8899113" id="Fill-4" fill="#9BA2A2" fill-rule="nonzero"></path>
            <path d="M7.458325,11.9201532 C5.28191371,11.9201532 3.51103468,10.1494113 3.51103468,7.9728629 C3.51103468,7.59433871 3.81799435,7.28737903 4.19651855,7.28737903 C4.57517984,7.28737903 4.88200242,7.59433871 4.88200242,7.9728629 C4.88200242,9.39345968 6.03772823,10.5491855 7.458325,10.5491855 C7.83684919,10.5491855 8.14380887,10.8561452 8.14380887,11.2346694 C8.14380887,11.6133306 7.83684919,11.9201532 7.458325,11.9201532" id="Fill-6" fill="#9BA2A2" fill-rule="nonzero"></path>
        </g>
    </g>
</svg>