<?xml version="1.0" encoding="UTF-8"?>
<svg width="10px" height="13px" viewBox="0 0 10 13" version="1.1" xmlns="http://www.w3.org/2000/svg" xmlns:xlink="http://www.w3.org/1999/xlink">
    <!-- Generator: Sketch 58 (84663) - https://sketch.com -->
    <title>Fill 608</title>
    <desc>Created with Sketch.</desc>
    <g id="Page-1" stroke="none" stroke-width="1" fill="none" fill-rule="evenodd">
        <g id="Homepage-mobile" transform="translate(-151.000000, -622.000000)" fill="#FFFFFF">
            <g id="Header-images" transform="translate(-314.000000, -58.000000)">
                <g id="Graphic">
                    <g id="Group-3" transform="translate(0.401894, 0.337340)">
                        <g id="Group-4" transform="translate(0.256915, 0.321335)">
                            <g id="arrow-" transform="translate(464.341191, 679.341325)">
                                <path d="M8.29283536,7.2935665 L5.99995,9.58674462 L5.99995,1.00007768 C5.99995,0.447034722 5.5519724,0 5,0 C4.44702765,0 4.00005,0.447034722 4.00005,1.00007768 L4.00005,9.58674462 L1.70716464,7.2935665 C1.31618419,6.90253613 0.683215839,6.90253613 0.293235338,7.2935665 C-0.0977451127,7.68459688 -0.0977451127,8.31664597 0.293235338,8.70767634 L4.2920354,12.706987 C4.660017,13.0820161 5.299985,13.1130185 5.70696465,12.706987 L9.70676466,8.70767634 C10.0977451,8.31664597 10.0977451,7.68459688 9.70676466,7.2935665 C9.31578421,6.90253613 8.68281586,6.90253613 8.29283536,7.2935665" id="Fill-608"></path>
                            </g>
                        </g>
                    </g>
                </g>
            </g>
        </g>
    </g>
</svg>