<?xml version="1.0" encoding="UTF-8"?>
<svg width="56px" height="53px" viewBox="0 0 56 53" version="1.1" xmlns="http://www.w3.org/2000/svg" xmlns:xlink="http://www.w3.org/1999/xlink">
    <!-- Generator: Sketch 58 (84663) - https://sketch.com -->
    <title>“</title>
    <desc>Created with Sketch.</desc>
    <g id="Designs" stroke="none" stroke-width="1" fill="none" fill-rule="evenodd" opacity="0.262207031">
        <g id="Purpose-(overview)---Our-Story" transform="translate(-156.000000, -1132.000000)" fill="#99998D" fill-rule="nonzero">
            <path d="M177.667946,1141.56238 C172.98846,1142.44402 169.699306,1145.8349 167.800384,1151.73512 C166.850923,1154.65133 166.3762,1157.53358 166.3762,1160.38196 C166.3762,1160.60802 166.383735,1160.81147 166.398806,1160.99232 L166.501802,1161.9359 C166.524639,1162.17879 166.550589,1162.47463 166.579655,1162.82342 L177.667946,1162.82342 L177.667946,1185 L156,1185 L156,1164.55278 C156,1154.51562 158.00062,1146.78442 162.001919,1141.35893 C166.003219,1135.93343 171.225176,1132.81382 177.667946,1132 L177.667946,1141.56238 Z M211.950096,1141.56238 C208.220071,1142.17275 205.388685,1144.27509 203.455854,1147.86948 C201.523023,1151.46387 200.556622,1155.60074 200.556622,1160.28023 C200.556622,1160.68714 200.573576,1161.09405 200.607486,1161.50096 C200.641395,1161.90787 200.726167,1162.34869 200.861804,1162.82342 L211.950096,1162.82342 L211.950096,1185 L190.180422,1185 L190.180422,1164.55278 C190.180422,1156.48237 191.875863,1149.27674 195.266795,1142.9357 C198.657726,1136.59466 204.218771,1132.94946 211.950096,1132 L211.950096,1141.56238 Z" id="“"></path>
        </g>
    </g>
</svg>